<svg width="26" height="27" viewBox="0 0 26 27" fill="none" xmlns="http://www.w3.org/2000/svg">
<g id="XMLID_17_">
<path id="XMLID_22_" d="M26 13.5C26 6.04336 20.1805 0 13 0C5.81953 0 0 6.04336 0 13.5C0 20.2389 4.75109 25.824 10.9698 26.8371V17.4055H7.67152V13.5H10.9698V10.5263C10.9698 7.14551 12.9071 5.27449 15.8778 5.27449C17.3022 5.27449 18.7911 5.5408 18.7911 5.5408V8.86201H17.1529C15.536 8.86201 15.0373 9.9051 15.0373 10.9703V13.5H18.6418L18.0649 17.4055H15.0373V26.8371C21.2489 25.824 26 20.2389 26 13.5Z" fill="#1877F2"/>
<path id="XMLID_18_" d="M18.0573 17.4055L18.6347 13.5H15.0303V10.9703C15.0303 9.90511 15.536 8.86203 17.1458 8.86203H18.784V5.54081C18.784 5.54081 17.2951 5.27451 15.8707 5.27451C12.9005 5.27451 10.9627 7.14605 10.9627 10.5263V13.5H7.66443V17.4055H10.9627V26.8371C11.6254 26.9478 12.3018 27 12.9929 27C13.684 27 14.3604 26.941 15.0231 26.8371V17.4055H18.0573Z" fill="white"/>
</g>
</svg>
