<svg width="26" height="27" viewBox="0 0 26 27" fill="none" xmlns="http://www.w3.org/2000/svg">
<g id="Google logo" clip-path="url(#clip0_1_23)">
<path id="Vector" d="M25.9863 13.7526C25.9863 12.6464 25.8978 11.8392 25.7064 11.0021H13.259V15.9948H20.5653C20.4181 17.2356 19.6226 19.1042 17.8549 20.3598L17.8301 20.5269L21.7658 23.6209L22.0384 23.6485C24.5426 21.3016 25.9863 17.8484 25.9863 13.7526Z" fill="#4285F4"/>
<path id="Vector_2" d="M13.259 26.9073C16.8385 26.9073 19.8435 25.7113 22.0384 23.6485L17.8549 20.3598C16.7354 21.152 15.2328 21.7051 13.259 21.7051C9.75308 21.7051 6.7775 19.3583 5.71679 16.1145L5.56131 16.1279L1.46897 19.3418L1.41545 19.4928C3.59557 23.8876 8.07371 26.9073 13.259 26.9073Z" fill="#34A853"/>
<path id="Vector_3" d="M5.71679 16.1145C5.43691 15.2774 5.27494 14.3804 5.27494 13.4536C5.27494 12.5268 5.43691 11.6299 5.70206 10.7928L5.69465 10.6145L1.55102 7.34895L1.41545 7.41439C0.516919 9.23813 0.00133896 11.2861 0.00133896 13.4536C0.00133896 15.6212 0.516919 17.669 1.41545 19.4928L5.71679 16.1145Z" fill="#FBBC05"/>
<path id="Vector_4" d="M13.259 5.20203C15.7484 5.20203 17.4277 6.29327 18.3852 7.20519L22.1268 3.49794C19.8289 1.33042 16.8385 0 13.259 0C8.07371 0 3.59557 3.01957 1.41545 7.41439L5.70206 10.7928C6.7775 7.54897 9.75308 5.20203 13.259 5.20203Z" fill="#EB4335"/>
</g>
<defs>
<clipPath id="clip0_1_23">
<rect width="26" height="27" fill="white"/>
</clipPath>
</defs>
</svg>
