<svg width="11" height="15" viewBox="0 0 11 15" fill="none" xmlns="http://www.w3.org/2000/svg">
<path d="M3.65588 3.96875L5.04706 2.65625C5.68333 3.27083 6.18739 3.99229 6.55924 4.82062C6.93151 5.64854 7.11765 6.54167 7.11765 7.5C7.11765 8.45833 6.92892 9.35167 6.55147 10.18C6.17402 11.0079 5.66176 11.7292 5.01471 12.3438L3.65588 11.0312C4.13039 10.5729 4.50245 10.0417 4.77206 9.4375C5.04167 8.83333 5.17647 8.1875 5.17647 7.5C5.17647 6.8125 5.04167 6.16667 4.77206 5.5625C4.50245 4.95833 4.13039 4.42708 3.65588 3.96875ZM6.40588 1.3125L7.76471 0C8.77843 0.958333 9.57108 2.07812 10.1426 3.35938C10.7142 4.64062 11 6.02083 11 7.5C11 8.97917 10.7142 10.3594 10.1426 11.6406C9.57108 12.9219 8.77843 14.0417 7.76471 15L6.40588 13.6875C7.23627 12.8854 7.88614 11.9558 8.35547 10.8988C8.82437 9.84125 9.05882 8.70833 9.05882 7.5C9.05882 6.29167 8.82437 5.15875 8.35547 4.10125C7.88614 3.04417 7.23627 2.11458 6.40588 1.3125ZM0 7.5L2.29706 9.70312C2.58823 9.42188 2.81751 9.09375 2.98488 8.71875C3.15182 8.34375 3.23529 7.9375 3.23529 7.5C3.23529 7.0625 3.15182 6.65625 2.98488 6.28125C2.81751 5.90625 2.58823 5.57812 2.29706 5.29687L0 7.5Z" fill="#B6AFAF"/>
</svg>
