<svg width="30" height="30" viewBox="0 0 30 30" fill="none" xmlns="http://www.w3.org/2000/svg">
<path d="M5 18.75C7.07107 18.75 8.75 17.0711 8.75 15C8.75 12.9289 7.07107 11.25 5 11.25C2.92893 11.25 1.25 12.9289 1.25 15C1.25 17.0711 2.92893 18.75 5 18.75Z" fill="#B6AFAF"/>
<path d="M5 18.75C7.07107 18.75 8.75 17.0711 8.75 15C8.75 12.9289 7.07107 11.25 5 11.25C2.92893 11.25 1.25 12.9289 1.25 15C1.25 17.0711 2.92893 18.75 5 18.75Z" fill="#B6AFAF"/>
<path d="M15 18.75C17.0711 18.75 18.75 17.0711 18.75 15C18.75 12.9289 17.0711 11.25 15 11.25C12.9289 11.25 11.25 12.9289 11.25 15C11.25 17.0711 12.9289 18.75 15 18.75Z" fill="#B6AFAF"/>
<path d="M25 18.75C27.0711 18.75 28.75 17.0711 28.75 15C28.75 12.9289 27.0711 11.25 25 11.25C22.9289 11.25 21.25 12.9289 21.25 15C21.25 17.0711 22.9289 18.75 25 18.75Z" fill="#B6AFAF"/>
</svg>
