<svg width="32" height="32" viewBox="0 0 32 32" fill="none" xmlns="http://www.w3.org/2000/svg">
<path d="M21.6 14.4C22.9254 14.4 24 13.3255 24 12C24 10.6745 22.9254 9.60001 21.6 9.60001C20.2745 9.60001 19.2 10.6745 19.2 12C19.2 13.3255 20.2745 14.4 21.6 14.4Z" fill="#B6AFAF"/>
<path d="M10.4 14.4C11.7255 14.4 12.8 13.3255 12.8 12C12.8 10.6745 11.7255 9.60001 10.4 9.60001C9.07452 9.60001 8 10.6745 8 12C8 13.3255 9.07452 14.4 10.4 14.4Z" fill="#B6AFAF"/>
<path d="M16 25.6C19.648 25.6 22.752 22.944 24 19.2H8C9.248 22.944 12.352 25.6 16 25.6Z" fill="#B6AFAF"/>
<path d="M15.984 0C7.152 0 0 7.168 0 16C0 24.832 7.152 32 15.984 32C24.832 32 32 24.832 32 16C32 7.168 24.832 0 15.984 0ZM16 28.8C8.928 28.8 3.2 23.072 3.2 16C3.2 8.928 8.928 3.2 16 3.2C23.072 3.2 28.8 8.928 28.8 16C28.8 23.072 23.072 28.8 16 28.8Z" fill="#B6AFAF"/>
</svg>
