<svg width="360" height="32" viewBox="0 0 360 32" fill="none" xmlns="http://www.w3.org/2000/svg">
<path d="M1 13L25 9.5L26.4239 9.3382C40.0337 7.79162 53.8099 8.66773 67.1142 11.9259L71.5 13L103 17.5L141.5 21.5H161.356C171.409 21.5 181.42 20.1931 191.136 17.6123L208.5 13L237.5 7L253.25 3.5V3.5C263.685 1.18121 274.42 0.524495 285.059 1.55411L300 3L328 7L361 13" stroke="#F94B7D" stroke-width="2"/>
<path d="M361.089 12.9989L337.146 16.8714L335.725 17.0553C322.14 18.8131 308.352 18.1512 294.999 15.1001L290.597 14.0943L259.031 10.0842L220.473 6.68285L200.62 6.99135C190.568 7.14754 180.579 8.60977 170.904 11.3413L153.614 16.2228L124.71 22.6726L109.017 26.4169V26.4169C98.6193 28.8975 87.8956 29.7209 77.2415 28.8567L62.28 27.6432L34.2212 24.0787L1.132 18.5921" stroke="#F27096" stroke-width="2"/>
</svg>
