<svg width="40" height="40" viewBox="0 0 40 40" fill="none" xmlns="http://www.w3.org/2000/svg">
<path d="M18.6907 38.6491C19.9388 38.6491 21.1357 38.1533 22.0183 37.2708C22.9008 36.3883 23.3966 35.1913 23.3966 33.9432H13.9848C13.9848 35.1913 14.4806 36.3883 15.3631 37.2708C16.2457 38.1533 17.4426 38.6491 18.6907 38.6491ZM18.6907 5.515L16.8154 5.89382C14.6882 6.32724 12.7762 7.4823 11.4028 9.16352C10.0295 10.8447 9.27916 12.9488 9.27893 15.1197C9.27893 16.5974 8.96364 20.2891 8.19893 23.9244C7.82246 25.7291 7.31422 27.6091 6.63893 29.2374H30.7425C30.0672 27.6091 29.5613 25.7315 29.1825 23.9244C28.4178 20.2891 28.1025 16.5974 28.1025 15.1197C28.1017 12.9493 27.3511 10.8457 25.9778 9.16496C24.6045 7.48423 22.6927 6.32951 20.566 5.89618L18.6907 5.515ZM33.326 29.2374C33.8507 30.2891 23.5367 29.3367 32.7201 30L6.22011 29.5C6.92364 29.0318 3.5307 30.2891 4.0554 29.2374C6.17305 25.0021 6.92599 17.1903 6.92599 15.1197C6.92599 9.42559 10.973 4.67265 16.3495 3.58794C16.3167 3.26077 16.3528 2.93036 16.4555 2.618C16.5582 2.30564 16.7252 2.01827 16.9458 1.77443C17.1664 1.53059 17.4356 1.33569 17.7362 1.2023C18.0367 1.06892 18.3619 1 18.6907 1C19.0195 1 19.3447 1.06892 19.6452 1.2023C19.9457 1.33569 20.215 1.53059 20.4356 1.77443C20.6562 2.01827 20.8232 2.30564 20.9259 2.618C21.0286 2.93036 21.0647 3.26077 21.0319 3.58794C23.6914 4.12888 26.0822 5.57232 27.7995 7.67383C29.5168 9.77533 30.4551 12.4058 30.4554 15.1197C30.4554 17.1903 31.2083 25.0021 33.326 29.2374Z" fill="#F94B7D" stroke="#F94B7D" stroke-width="2"/>
<line x1="2" y1="29.5882" x2="35.6471" y2="29.5882" stroke="#F94B7D" stroke-width="4" stroke-linecap="round"/>
<circle cx="30.4118" cy="13.4118" r="9.41176" fill="#F94B7D"/>
<path d="M30.4943 18.1392C29.8381 18.1392 29.2531 18.0265 28.7393 17.8011C28.2289 17.5758 27.8229 17.2625 27.5213 16.8615C27.223 16.4571 27.0606 15.9882 27.0341 15.4545H28.2869C28.3134 15.7827 28.4261 16.0661 28.625 16.3047C28.8239 16.54 29.084 16.7223 29.4055 16.8516C29.727 16.9808 30.0833 17.0455 30.4744 17.0455C30.9119 17.0455 31.2997 16.9692 31.6378 16.8168C31.9759 16.6643 32.241 16.4522 32.4332 16.1804C32.6255 15.9086 32.7216 15.5938 32.7216 15.2358C32.7216 14.8613 32.6288 14.5315 32.4432 14.2464C32.2576 13.9581 31.9858 13.7327 31.6278 13.5703C31.2699 13.4079 30.8324 13.3267 30.3153 13.3267H29.5V12.233H30.3153C30.7197 12.233 31.0743 12.16 31.3793 12.0142C31.6875 11.8684 31.9278 11.6629 32.1001 11.3977C32.2758 11.1326 32.3636 10.821 32.3636 10.4631C32.3636 10.1184 32.2874 9.81842 32.1349 9.56321C31.9825 9.308 31.767 9.10914 31.4886 8.96662C31.2135 8.8241 30.8887 8.75284 30.5142 8.75284C30.1629 8.75284 29.8314 8.81747 29.5199 8.94673C29.2116 9.07268 28.9598 9.25663 28.7642 9.49858C28.5687 9.73722 28.4626 10.0256 28.446 10.3636H27.2528C27.2727 9.83002 27.4335 9.36269 27.7351 8.96165C28.0367 8.55729 28.4311 8.24242 28.9183 8.01705C29.4089 7.79167 29.9474 7.67898 30.5341 7.67898C31.1638 7.67898 31.7041 7.80658 32.1548 8.06179C32.6056 8.31368 32.9519 8.64678 33.1939 9.06108C33.4358 9.47538 33.5568 9.92282 33.5568 10.4034C33.5568 10.9768 33.406 11.4657 33.1044 11.87C32.8061 12.2744 32.4001 12.5545 31.8864 12.7102V12.7898C32.5294 12.8958 33.0315 13.1693 33.3928 13.6101C33.754 14.0476 33.9347 14.5895 33.9347 15.2358C33.9347 15.7893 33.7839 16.2865 33.4822 16.7273C33.1839 17.1648 32.7763 17.5095 32.2592 17.7614C31.7422 18.0133 31.1539 18.1392 30.4943 18.1392Z" fill="white"/>
</svg>
