<svg width="38" height="31" viewBox="0 0 38 31" fill="none" xmlns="http://www.w3.org/2000/svg">
<circle cx="17.484" cy="15.1773" r="12" fill="white" stroke="#B6AFAF" stroke-width="2"/>
<circle cx="17.484" cy="15.1772" r="12" fill="white" stroke="#B6AFAF" stroke-width="2"/>
<path d="M6.60605 20.7538L4.30021 22.7627C3.05557 23.8471 3.10236 25.7956 4.39762 26.819V26.819C5.0778 27.3564 5.97871 27.525 6.80724 27.2701L10.8808 26.0167C11.6141 25.7911 12.3212 25.4876 12.99 25.1114L15.4935 23.7031C18.4732 22.0271 21.2097 19.9516 23.627 17.5342L25.484 15.6773L30.8371 8.86425C30.9348 8.73982 31.0219 8.60736 31.0974 8.46829V8.46829C32.2513 6.34273 30.3631 3.8481 28.0041 4.38143L24.484 5.17727" stroke="#B6AFAF" stroke-width="2"/>
</svg>
