<svg width="32" height="32" viewBox="0 0 32 32" fill="none" xmlns="http://www.w3.org/2000/svg">
<path d="M28.9 19.5531L26.8531 17.8031C26.95 17.2094 27 16.6031 27 15.9969C27 15.3906 26.95 14.7844 26.8531 14.1906L28.9 12.4406C29.0544 12.3085 29.1649 12.1324 29.2168 11.9359C29.2687 11.7394 29.2596 11.5318 29.1906 11.3406L29.1625 11.2594C28.599 9.68446 27.7552 8.22449 26.6718 6.95L26.6156 6.88438C26.4842 6.72985 26.309 6.61877 26.1132 6.56578C25.9174 6.51278 25.7101 6.52036 25.5187 6.5875L22.9781 7.49063C22.0406 6.72188 20.9937 6.11563 19.8625 5.69063L19.3718 3.03438C19.3348 2.83451 19.2379 2.65064 19.0939 2.50718C18.9499 2.36373 18.7656 2.26749 18.5656 2.23125L18.4812 2.21563C16.8531 1.92188 15.1406 1.92188 13.5125 2.21563L13.4281 2.23125C13.2281 2.26749 13.0438 2.36373 12.8998 2.50718C12.7558 2.65064 12.6589 2.83451 12.6218 3.03438L12.1281 5.70313C11.0059 6.12822 9.9608 6.73414 9.03435 7.49688L6.47497 6.5875C6.28361 6.51982 6.07619 6.51197 5.88027 6.565C5.68434 6.61803 5.50919 6.72942 5.37809 6.88438L5.32184 6.95C4.2398 8.22539 3.39614 9.68512 2.83122 11.2594L2.80309 11.3406C2.66247 11.7313 2.77809 12.1688 3.09372 12.4406L5.16559 14.2094C5.06872 14.7969 5.02184 15.3969 5.02184 15.9938C5.02184 16.5938 5.06872 17.1938 5.16559 17.7781L3.09372 19.5469C2.93933 19.679 2.82883 19.8551 2.77692 20.0516C2.72501 20.2481 2.73414 20.4557 2.80309 20.6469L2.83122 20.7281C3.39684 22.3031 4.23434 23.7563 5.32184 25.0375L5.37809 25.1031C5.50951 25.2577 5.68467 25.3687 5.88048 25.4217C6.07628 25.4747 6.28355 25.4672 6.47497 25.4L9.03435 24.4906C9.9656 25.2563 11.0062 25.8625 12.1281 26.2844L12.6218 28.9531C12.6589 29.153 12.7558 29.3369 12.8998 29.4803C13.0438 29.6238 13.2281 29.72 13.4281 29.7563L13.5125 29.7719C15.1556 30.0672 16.8381 30.0672 18.4812 29.7719L18.5656 29.7563C18.7656 29.72 18.9499 29.6238 19.0939 29.4803C19.2379 29.3369 19.3348 29.153 19.3718 28.9531L19.8625 26.2969C20.9933 25.873 22.046 25.2648 22.9781 24.4969L25.5187 25.4C25.7101 25.4677 25.9175 25.4755 26.1134 25.4225C26.3093 25.3695 26.4845 25.2581 26.6156 25.1031L26.6718 25.0375C27.7593 23.7531 28.5968 22.3031 29.1625 20.7281L29.1906 20.6469C29.3312 20.2625 29.2156 19.825 28.9 19.5531ZM24.6343 14.5594C24.7125 15.0313 24.7531 15.5156 24.7531 16C24.7531 16.4844 24.7125 16.9688 24.6343 17.4406L24.4281 18.6938L26.7625 20.6906C26.4086 21.5059 25.9619 22.2777 25.4312 22.9906L22.5312 21.9625L21.55 22.7688C20.8031 23.3813 19.9718 23.8625 19.0718 24.2L17.8812 24.6469L17.3218 27.6781C16.4393 27.7781 15.5482 27.7781 14.6656 27.6781L14.1062 24.6406L12.925 24.1875C12.0343 23.85 11.2062 23.3688 10.4656 22.7594L9.48434 21.95L6.56559 22.9875C6.03434 22.2719 5.59059 21.5 5.23434 20.6875L7.59372 18.6719L7.39059 17.4219C7.3156 16.9563 7.27497 16.475 7.27497 16C7.27497 15.5219 7.31247 15.0438 7.39059 14.5781L7.59372 13.3281L5.23434 11.3125C5.58747 10.4969 6.03434 9.72813 6.56559 9.0125L9.48434 10.05L10.4656 9.24063C11.2062 8.63125 12.0343 8.15 12.925 7.8125L14.1093 7.36563L14.6687 4.32813C15.5468 4.22813 16.4437 4.22813 17.325 4.32813L17.8843 7.35938L19.075 7.80625C19.9718 8.14375 20.8062 8.625 21.5531 9.2375L22.5343 10.0438L25.4343 9.01563C25.9656 9.73125 26.4093 10.5031 26.7656 11.3156L24.4312 13.3125L24.6343 14.5594ZM16 10.1875C12.9625 10.1875 10.5 12.65 10.5 15.6875C10.5 18.725 12.9625 21.1875 16 21.1875C19.0375 21.1875 21.5 18.725 21.5 15.6875C21.5 12.65 19.0375 10.1875 16 10.1875ZM18.475 18.1625C18.1504 18.4881 17.7646 18.7462 17.3398 18.9221C16.9151 19.098 16.4597 19.1882 16 19.1875C15.0656 19.1875 14.1875 18.8219 13.525 18.1625C13.1994 17.8379 12.9413 17.4521 12.7654 17.0273C12.5894 16.6026 12.4993 16.1472 12.5 15.6875C12.5 14.7531 12.8656 13.875 13.525 13.2125C14.1875 12.55 15.0656 12.1875 16 12.1875C16.9343 12.1875 17.8125 12.55 18.475 13.2125C18.8005 13.5371 19.0587 13.9229 19.2346 14.3477C19.4105 14.7724 19.5007 15.2278 19.5 15.6875C19.5 16.6219 19.1343 17.5 18.475 18.1625Z" fill="#B6AFAF"/>
</svg>
