<svg width="32" height="32" viewBox="0 0 32 32" fill="none" xmlns="http://www.w3.org/2000/svg">
<path d="M24 29.3333C22.8889 29.3333 21.9444 28.9444 21.1667 28.1667C20.3889 27.3889 20 26.4444 20 25.3333C20 25.1778 20.0111 25.0164 20.0333 24.8493C20.0556 24.6831 20.0889 24.5333 20.1333 24.4L10.7333 18.9333C10.3556 19.2667 9.93333 19.5276 9.46667 19.716C9 19.9053 8.51111 20 8 20C6.88889 20 5.94444 19.6111 5.16667 18.8333C4.38889 18.0556 4 17.1111 4 16C4 14.8889 4.38889 13.9444 5.16667 13.1667C5.94444 12.3889 6.88889 12 8 12C8.51111 12 9 12.0942 9.46667 12.2827C9.93333 12.472 10.3556 12.7333 10.7333 13.0667L20.1333 7.6C20.0889 7.46667 20.0556 7.31689 20.0333 7.15067C20.0111 6.98356 20 6.82222 20 6.66667C20 5.55556 20.3889 4.61111 21.1667 3.83333C21.9444 3.05556 22.8889 2.66667 24 2.66667C25.1111 2.66667 26.0556 3.05556 26.8333 3.83333C27.6111 4.61111 28 5.55556 28 6.66667C28 7.77778 27.6111 8.72222 26.8333 9.5C26.0556 10.2778 25.1111 10.6667 24 10.6667C23.4889 10.6667 23 10.572 22.5333 10.3827C22.0667 10.1942 21.6444 9.93333 21.2667 9.6L11.8667 15.0667C11.9111 15.2 11.9444 15.3498 11.9667 15.516C11.9889 15.6831 12 15.8444 12 16C12 16.1556 11.9889 16.3164 11.9667 16.4827C11.9444 16.6498 11.9111 16.8 11.8667 16.9333L21.2667 22.4C21.6444 22.0667 22.0667 21.8053 22.5333 21.616C23 21.4276 23.4889 21.3333 24 21.3333C25.1111 21.3333 26.0556 21.7222 26.8333 22.5C27.6111 23.2778 28 24.2222 28 25.3333C28 26.4444 27.6111 27.3889 26.8333 28.1667C26.0556 28.9444 25.1111 29.3333 24 29.3333ZM24 8C24.3778 8 24.6942 7.87245 24.9493 7.61733C25.2053 7.36133 25.3333 7.04445 25.3333 6.66667C25.3333 6.28889 25.2053 5.972 24.9493 5.716C24.6942 5.46089 24.3778 5.33333 24 5.33333C23.6222 5.33333 23.3058 5.46089 23.0507 5.716C22.7947 5.972 22.6667 6.28889 22.6667 6.66667C22.6667 7.04445 22.7947 7.36133 23.0507 7.61733C23.3058 7.87245 23.6222 8 24 8ZM8 17.3333C8.37778 17.3333 8.69467 17.2053 8.95067 16.9493C9.20578 16.6942 9.33333 16.3778 9.33333 16C9.33333 15.6222 9.20578 15.3053 8.95067 15.0493C8.69467 14.7942 8.37778 14.6667 8 14.6667C7.62222 14.6667 7.30533 14.7942 7.04933 15.0493C6.79422 15.3053 6.66667 15.6222 6.66667 16C6.66667 16.3778 6.79422 16.6942 7.04933 16.9493C7.30533 17.2053 7.62222 17.3333 8 17.3333ZM24 26.6667C24.3778 26.6667 24.6942 26.5387 24.9493 26.2827C25.2053 26.0276 25.3333 25.7111 25.3333 25.3333C25.3333 24.9556 25.2053 24.6391 24.9493 24.384C24.6942 24.128 24.3778 24 24 24C23.6222 24 23.3058 24.128 23.0507 24.384C22.7947 24.6391 22.6667 24.9556 22.6667 25.3333C22.6667 25.7111 22.7947 26.0276 23.0507 26.2827C23.3058 26.5387 23.6222 26.6667 24 26.6667Z" fill="#B6AFAF"/>
</svg>
