<svg width="30" height="26" viewBox="0 0 30 26" fill="none" xmlns="http://www.w3.org/2000/svg">
<path d="M15 0C11.0218 0 7.20644 1.19774 4.3934 3.32973C1.58035 5.46173 0 8.35333 0 11.3684V20.2105C0 22.3074 2.23333 24 5 24H5.53907C6.15857 24 6.62902 23.4425 6.52483 22.8318L5.12829 14.6466C5.05419 14.2123 4.6778 13.8947 4.23725 13.8947C3.73803 13.8947 3.33333 13.49 3.33333 12.9908V11.3684C3.33333 6.48 8.55 2.52632 15 2.52632C21.45 2.52632 26.6667 6.48 26.6667 11.3684V12.9797C26.6667 13.4851 26.257 13.8947 25.7517 13.8947C25.3148 13.8947 24.9389 14.2036 24.8541 14.6321L23.2363 22.8058C23.114 23.4241 23.5884 23.997 24.2122 23.907C26.8528 23.5259 30 22.0185 30 20.2105V11.3684C30 8.35333 28.4196 5.46173 25.6066 3.32973C22.7936 1.19774 18.9782 0 15 0Z" fill="#F94B7D"/>
<path d="M18.5 15C19.3284 15 20 14.3284 20 13.5C20 12.6716 19.3284 12 18.5 12C17.6716 12 17 12.6716 17 13.5C17 14.3284 17.6716 15 18.5 15Z" fill="#F94B7D"/>
<path d="M11.5 15C12.3284 15 13 14.3284 13 13.5C13 12.6716 12.3284 12 11.5 12C10.6716 12 10 12.6716 10 13.5C10 14.3284 10.6716 15 11.5 15Z" fill="#F94B7D"/>
<path d="M15 22C17.28 22 19.22 20.34 20 18H10C10.78 20.34 12.72 22 15 22Z" fill="#F94B7D"/>
<path d="M14.99 6C9.47 6 5 10.48 5 16C5 21.52 9.47 26 14.99 26C20.52 26 25 21.52 25 16C25 10.48 20.52 6 14.99 6ZM15 24C10.58 24 7 20.42 7 16C7 11.58 10.58 8 15 8C19.42 8 23 11.58 23 16C23 20.42 19.42 24 15 24Z" fill="#F94B7D"/>
</svg>
