<svg width="32" height="32" viewBox="0 0 32 32" fill="none" xmlns="http://www.w3.org/2000/svg">
<path d="M21.3334 28H10.6667C10.3131 28 9.97393 27.8595 9.72388 27.6095C9.47383 27.3594 9.33335 27.0203 9.33335 26.6667V16.0933L7.60002 17.4933C7.08002 18 6.24002 18 5.72002 17.4933L1.94669 13.72C1.82308 13.5966 1.72502 13.4501 1.65811 13.2888C1.5912 13.1275 1.55676 12.9546 1.55676 12.78C1.55676 12.6054 1.5912 12.4325 1.65811 12.2712C1.72502 12.1099 1.82308 11.9634 1.94669 11.84L9.78669 4H12C12 5.46667 13.7867 6.66667 16 6.66667C18.2134 6.66667 20 5.46667 20 4H22.2134L30.0534 11.84C30.5734 12.36 30.5734 13.2 30.0534 13.72L26.28 17.4933C25.76 18 24.92 18 24.4 17.4933L22.6667 16.0933V26.6667C22.6667 27.0203 22.5262 27.3594 22.2762 27.6095C22.0261 27.8595 21.687 28 21.3334 28ZM27.2267 12.7733L21.48 7.04C21.0667 7.50667 20.5734 7.92 20 8.26667C18.88 8.93333 17.5067 9.33333 16 9.33333C13.7334 9.33333 11.72 8.42667 10.52 7.04L4.77335 12.7733L6.66669 14.6667L10.6667 12H12V25.3333H20V12H21.3334L25.3334 14.6667L27.2267 12.7733Z" fill="#B6AFAF"/>
</svg>
