<svg width="32" height="32" viewBox="0 0 32 32" fill="none" xmlns="http://www.w3.org/2000/svg">
<circle cx="16" cy="16" r="15" fill="white" stroke="#B6AFAF" stroke-width="2"/>
<path d="M14.6559 12.9688L16.0471 11.6562C16.6833 12.2708 17.1874 12.9923 17.5592 13.8206C17.9315 14.6485 18.1176 15.5417 18.1176 16.5C18.1176 17.4583 17.9289 18.3517 17.5515 19.18C17.174 20.0079 16.6618 20.7292 16.0147 21.3438L14.6559 20.0312C15.1304 19.5729 15.5025 19.0417 15.7721 18.4375C16.0417 17.8333 16.1765 17.1875 16.1765 16.5C16.1765 15.8125 16.0417 15.1667 15.7721 14.5625C15.5025 13.9583 15.1304 13.4271 14.6559 12.9688ZM17.4059 10.3125L18.7647 9C19.7784 9.95833 20.5711 11.0781 21.1426 12.3594C21.7142 13.6406 22 15.0208 22 16.5C22 17.9792 21.7142 19.3594 21.1426 20.6406C20.5711 21.9219 19.7784 23.0417 18.7647 24L17.4059 22.6875C18.2363 21.8854 18.8861 20.9558 19.3555 19.8988C19.8244 18.8412 20.0588 17.7083 20.0588 16.5C20.0588 15.2917 19.8244 14.1588 19.3555 13.1012C18.8861 12.0442 18.2363 11.1146 17.4059 10.3125ZM11 16.5L13.2971 18.7031C13.5882 18.4219 13.8175 18.0938 13.9849 17.7188C14.1518 17.3438 14.2353 16.9375 14.2353 16.5C14.2353 16.0625 14.1518 15.6562 13.9849 15.2812C13.8175 14.9062 13.5882 14.5781 13.2971 14.2969L11 16.5Z" fill="#B6AFAF"/>
</svg>
